# File created by Blade
# Date/Time:  Wed Sep 24 20:21:23 2014
# Frame Rate: 120.000 fps
#------------------------------------------------------
:FULLY-SPECIFIED
:DEGREES
547
root -7.867389 33.249057 -3.640374 6.958804 20.355777 33.165470
Spine 7.718606 -23.773600 -42.884131
Head -3.267045 -9.280697 25.312716
LeftShoulder 8.294472 -26.181599 30.021920
LeftArm 134.185933 -70.605164 -154.030543
LeftForeArm -12.023530 -0.000000 47.655898
LeftHand -15.491945 -0.000000 -34.132583
LeftHandThumb1 -26.253704 0.000000 33.147579
RightShoulder -14.865922 20.914265 -29.541415
RightArm -13.695298 3.926110 15.557960
RightForeArm -22.806377 -0.000000 11.445826
RightHand -9.454845 -0.000000 8.322926
RightHandThumb1 -24.326973 -0.000000 -32.862282
LeftUpLeg -149.084395 31.523070 -31.423141
LeftLeg 5.090174 -0.000000 -0.000000
LeftFoot 41.317639 22.857354 -9.206045
LeftToeBase 11.901399 -0.000000 -0.000000
RightUpLeg -4.833170 -4.548952 -22.847802
RightLeg 32.249774 -0.000000 -0.000000
RightFoot -19.854297 -31.602416 -7.356039
RightToeBase 0.115355 -0.000000 -0.000000
548
root -7.876953 33.246841 -3.634828 6.994853 20.390768 33.106540
Spine 7.681014 -23.825239 -42.843291
Head -3.431250 -9.369687 25.390756
LeftShoulder 8.304722 -26.248058 29.989188
LeftArm 134.119578 -70.658709 -153.990377
LeftForeArm -12.021516 -0.000000 47.657564
LeftHand -15.452931 -0.000000 -34.227070
LeftHandThumb1 -26.253704 0.000000 33.147579
RightShoulder -14.891458 20.921878 -29.554320
RightArm -13.584940 3.976339 15.357950
RightForeArm -22.802641 -0.000000 11.381816
RightHand -9.343432 -0.000000 8.224712
RightHandThumb1 -24.326973 -0.000000 -32.862282
LeftUpLeg -149.112322 31.449224 -31.445504
LeftLeg 5.082953 -0.000000 -0.000000
LeftFoot 41.303563 22.777961 -9.278818
LeftToeBase 11.730999 -0.000000 -0.000000
RightUpLeg -4.842218 -4.580247 -22.754690
RightLeg 32.191822 -0.000000 -0.000000
RightFoot -19.815390 -31.655696 -7.405219
RightToeBase 0.068532 -0.000000 -0.000000
549
root -7.885215 33.245370 -3.629736 7.034140 20.414117 33.067917
Spine 7.645440 -23.871220 -42.827636
Head -3.611961 -9.445178 25.500004
LeftShoulder 8.294537 -26.270367 29.978660
LeftArm 134.054890 -70.701439 -153.959255
LeftForeArm -12.042185 -0.000000 47.651345
LeftHand -15.462833 -0.000000 -34.256318
LeftHandThumb1 -26.253704 0.000000 33.147579
RightShoulder -14.915987 20.964188 -29.577818
RightArm -13.506778 3.964762 15.172537
RightForeArm -22.850850 0.000000 11.387268
RightHand -9.489599 -0.000000 7.964547
RightHandThumb1 -24.326973 -0.000000 -32.862282
LeftUpLeg -149.115464 31.436490 -31.448054
LeftLeg 5.081518 -0.000000 -0.000000
LeftFoot 41.289179 22.800820 -9.363134
LeftToeBase 11.848558 -0.000000 -0.000000
RightUpLeg -4.845021 -4.631387 -22.694012
RightLeg 32.128050 -0.000000 -0.000000
RightFoot -19.822035 -31.653344 -7.420723
RightToeBase 0.044198 -0.000000 -0.000000
550
root -7.892011 33.243231 -3.623918 7.048805 20.422922 33.011608
Spine 7.607297 -23.896114 -42.768780
Head -3.771843 -9.519743 25.559920
LeftShoulder 8.308067 -26.257778 29.910751
LeftArm 134.108194 -70.707762 -153.998287
LeftForeArm -11.995614 -0.000000 47.622958
LeftHand -15.443429 -0.000000 -34.233274
LeftHandThumb1 -26.253704 0.000000 33.147579
RightShoulder -14.952092 20.983609 -29.610321
RightArm -13.393304 3.991978 15.005773
RightForeArm -22.839033 -0.000000 11.358505
RightHand -9.438379 -0.000000 7.835464
RightHandThumb1 -24.326973 -0.000000 -32.862282
LeftUpLeg -149.113141 31.455927 -31.414777
LeftLeg 5.104379 -0.000000 -0.000000
LeftFoot 41.283467 22.767650 -9.342961
LeftToeBase 12.074007 -0.000000 -0.000000
RightUpLeg -4.835606 -4.677432 -22.621276
RightLeg 32.059066 -0.000000 -0.000000
RightFoot -19.813860 -31.664858 -7.464276
RightToeBase 0.052702 -0.000000 -0.000000
551
root -7.896431 33.242780 -3.618053 7.057960 20.431119 32.980369
Spine 7.582337 -23.918141 -42.739648
Head -3.894265 -9.586308 25.618115
LeftShoulder 8.296982 -26.260637 29.863823
LeftArm 134.045875 -70.770480 -153.945772
LeftForeArm -12.006765 -0.000000 47.567129
LeftHand -15.441028 0.000000 -34.138555
LeftHandThumb1 -26.253704 0.000000 33.147579
RightShoulder -14.965587 20.971803 -29.628766
RightArm -13.277562 3.981138 14.849808
RightForeArm -22.768698 0.000000 11.330713
RightHand -9.381763 -0.000000 7.775098
RightHandThumb1 -24.326973 -0.000000 -32.862282
LeftUpLeg -149.098945 31.493468 -31.392729
LeftLeg 5.150559 -0.000000 -0.000000
LeftFoot 41.350491 22.795162 -9.226163
LeftToeBase 11.987171 -0.000000 -0.000000
RightUpLeg -4.806890 -4.716159 -22.580370
RightLeg 31.982471 -0.000000 -0.000000
RightFoot -19.824174 -31.655906 -7.477844
RightToeBase 0.025789 -0.000000 -0.000000
552
root -7.900741 33.244022 -3.611591 7.051224 20.438166 32.945483
Spine 7.562710 -23.926098 -42.705621
Head -3.978741 -9.703094 25.667916
LeftShoulder 8.320609 -26.237018 29.785800
LeftArm 134.149497 -70.786880 -154.017493
LeftForeArm -12.048930 -0.000000 47.463673
LeftHand -15.405403 -0.000000 -34.120879
LeftHandThumb1 -26.253704 0.000000 33.147579
RightShoulder -14.992716 20.991448 -29.648009
RightArm -13.136950 4.031579 14.684611
RightForeArm -22.769874 -0.000000 11.238159
RightHand -9.131279 -0.000000 8.048893
RightHandThumb1 -24.326973 -0.000000 -32.862282
LeftUpLeg -149.073586 31.544214 -31.364436
LeftLeg 5.221414 -0.000000 -0.000000
LeftFoot 41.340602 22.813158 -9.250228
LeftToeBase 11.909341 -0.000000 -0.000000
RightUpLeg -4.756773 -4.760386 -22.542002
RightLeg 31.893221 -0.000000 -0.000000
RightFoot -19.816144 -31.627252 -7.503883
RightToeBase -0.002247 -0.000000 0.000000
553
root -7.906212 33.246815 -3.604137 7.030389 20.443328 32.908033
Spine 7.541234 -23.934562 -42.677008
Head -4.019987 -9.869144 25.697624
LeftShoulder 8.365205 -26.199475 29.683664
LeftArm 134.298940 -70.801538 -154.113745
LeftForeArm -12.081210 -0.000000 47.357038
LeftHand -15.408225 0.000000 -34.116603
LeftHandThumb1 -26.253704 0.000000 33.147579
RightShoulder -15.008271 20.970089 -29.598570
RightArm -12.920240 4.039191 14.485933
RightForeArm -22.694876 -0.000000 11.064034
RightHand -8.107400 -0.000000 8.373759
RightHandThumb1 -24.326973 -0.000000 -32.862282
LeftUpLeg -149.032178 31.591687 -31.336305
LeftLeg 5.277727 -0.000000 -0.000000
LeftFoot 41.379877 22.785186 -9.249142
LeftToeBase 11.645161 -0.000000 -0.000000
RightUpLeg -4.693542 -4.752262 -22.491389
RightLeg 31.797376 -0.000000 -0.000000
RightFoot -19.771593 -31.639597 -7.562631
RightToeBase -0.006194 -0.000000 0.000000
554
root -7.910703 33.250948 -3.596425 7.017189 20.435124 32.872701
Spine 7.505954 -23.947018 -42.658414
Head -4.043884 -10.082995 25.750048
LeftShoulder 8.380782 -26.141472 29.616814
LeftArm 134.401700 -70.789722 -154.192857
LeftForeArm -12.129391 -0.000000 47.259091
LeftHand -15.408888 -0.000000 -34.083957
LeftHandThumb1 -26.253704 0.000000 33.147579
RightShoulder -15.019598 20.975111 -29.592236
RightArm -12.763354 4.001485 14.389033
RightForeArm -22.627067 -0.000000 11.014534
RightHand -8.004271 -0.000000 8.334624
RightHandThumb1 -24.326973 -0.000000 -32.862282
LeftUpLeg -149.018935 31.619759 -31.343715
LeftLeg 5.317458 -0.000000 -0.000000
LeftFoot 41.397343 22.751259 -9.292553
LeftToeBase 11.855339 -0.000000 -0.000000
RightUpLeg -4.637189 -4.738685 -22.448143
RightLeg 31.686923 -0.000000 -0.000000
RightFoot -19.727704 -31.628304 -7.592425
RightToeBase -0.057416 -0.000000 0.000000
555
root -7.915673 33.255721 -3.588456 7.000089 20.424046 32.832421
Spine 7.466569 -23.956277 -42.645217
Head -4.026542 -10.323063 25.801075
LeftShoulder 8.398004 -26.057495 29.554740
LeftArm 134.471524 -70.774137 -154.224503
LeftForeArm -12.248644 -0.000000 47.173329
LeftHand -15.469640 0.000000 -34.084292
LeftHandThumb1 -26.253704 0.000000 33.147579
RightShoulder -15.019687 21.037614 -29.602148
RightArm -12.667029 3.936686 14.312229
RightForeArm -22.546923 -0.000000 11.028964
RightHand -8.045816 -0.000000 8.371796
RightHandThumb1 -24.326973 -0.000000 -32.862282
LeftUpLeg -149.004425 31.643112 -31.351767
LeftLeg 5.343490 -0.000000 -0.000000
LeftFoot 41.428347 22.702073 -9.274638
LeftToeBase 12.168644 -0.000000 -0.000000
RightUpLeg -4.585232 -4.697668 -22.391930
RightLeg 31.584311 -0.000000 -0.000000
RightFoot -19.658297 -31.657876 -7.635426
RightToeBase -0.055213 -0.000000 0.000000
556
root -7.922935 33.262161 -3.579348 6.984060 20.417225 32.785123
Spine 7.423853 -23.989487 -42.627457
Head -3.982444 -10.518179 25.850783
LeftShoulder 8.383876 -25.979830 29.500340
LeftArm 134.427950 -70.764549 -154.160930
LeftForeArm -12.428958 -0.000000 47.108003
LeftHand -15.559025 -0.000000 -33.948586
LeftHandThumb1 -26.253704 0.000000 33.147579
RightShoulder -15.014920 20.982256 -29.569082
RightArm -12.519745 4.012905 14.267394
RightForeArm -22.524942 0.000000 11.048668
RightHand -8.041914 -0.000000 8.376559
RightHandThumb1 -24.326973 -0.000000 -32.862282
LeftUpLeg -149.019528 31.615626 -31.395971
LeftLeg 5.362229 -0.000000 -0.000000
LeftFoot 41.469015 22.656090 -9.292066
LeftToeBase 12.033682 -0.000000 -0.000000
RightUpLeg -4.528986 -4.655374 -22.323914
RightLeg 31.467980 -0.000000 -0.000000
RightFoot -19.567674 -31.680295 -7.697654
RightToeBase -0.053498 -0.000000 0.000000
557
root -7.930132 33.268274 -3.568368 6.959045 20.406934 32.724951
Spine 7.381332 -24.041028 -42.607727
Head -3.911018 -10.622511 25.940340
LeftShoulder 8.365709 -25.935334 29.482996
LeftArm 134.532481 -70.766096 -154.285110
LeftForeArm -12.490656 0.000000 47.032846
LeftHand -15.501620 -0.000000 -33.996787
LeftHandThumb1 -26.253704 0.000000 33.147579
RightShoulder -15.012853 20.949459 -29.532970
RightArm -12.333306 4.020350 14.251508
RightForeArm -22.416773 -0.000000 11.024138
RightHand -7.989269 -0.000000 8.380697
RightHandThumb1 -24.326973 -0.000000 -32.862282
LeftUpLeg -149.051121 31.582996 -31.439192
LeftLeg 5.391914 -0.000000 -0.000000
LeftFoot 41.484597 22.504995 -9.313092
LeftToeBase 11.883613 -0.000000 -0.000000
RightUpLeg -4.464605 -4.600466 -22.240373
RightLeg 31.344269 -0.000000 -0.000000
RightFoot -19.474175 -31.716762 -7.746761
RightToeBase -0.133154 -0.000000 0.000000
